<svg xmlns="http://www.w3.org/2000/svg" xmlns:xlink="http://www.w3.org/1999/xlink" width="600" zoomAndPan="magnify" viewBox="0 0 450 149.999998" height="200" preserveAspectRatio="xMidYMid meet" version="1.0"><defs><g/></defs><g fill="#ffffff" fill-opacity="1"><g transform="translate(104.707598, 71.848537)"><g><path d="M 6.40625 -25.65625 L 21.796875 -25.65625 C 22.742188 -25.65625 23.601562 -25.421875 24.375 -24.953125 C 25.15625 -24.492188 25.773438 -23.875 26.234375 -23.09375 C 26.703125 -22.320312 26.9375 -21.460938 26.9375 -20.515625 L 26.9375 0 L 21.796875 0 L 21.796875 -10.265625 L 6.40625 -10.265625 L 6.40625 0 L 1.28125 0 L 1.28125 -20.515625 C 1.28125 -21.460938 1.507812 -22.320312 1.96875 -23.09375 C 2.425781 -23.875 3.046875 -24.492188 3.828125 -24.953125 C 4.609375 -25.421875 5.46875 -25.65625 6.40625 -25.65625 Z M 6.40625 -20.515625 L 6.40625 -15.390625 L 21.796875 -15.390625 L 21.796875 -20.515625 Z M 6.40625 -20.515625 "/></g></g></g><g fill="#ffffff" fill-opacity="1"><g transform="translate(137.059031, 71.848537)"><g><path d="M 26.9375 -20.515625 L 26.9375 -15.390625 C 26.9375 -14.679688 26.679688 -14.078125 26.171875 -13.578125 C 25.671875 -13.078125 25.070312 -12.828125 24.375 -12.828125 C 25.070312 -12.828125 25.671875 -12.570312 26.171875 -12.0625 C 26.679688 -11.5625 26.9375 -10.960938 26.9375 -10.265625 L 26.9375 -5.125 C 26.9375 -4.207031 26.703125 -3.359375 26.234375 -2.578125 C 25.773438 -1.796875 25.160156 -1.171875 24.390625 -0.703125 C 23.628906 -0.234375 22.765625 0 21.796875 0 L 1.28125 0 L 1.28125 -25.65625 L 21.796875 -25.65625 C 22.765625 -25.65625 23.628906 -25.414062 24.390625 -24.9375 C 25.160156 -24.46875 25.773438 -23.847656 26.234375 -23.078125 C 26.703125 -22.316406 26.9375 -21.460938 26.9375 -20.515625 Z M 21.796875 -20.515625 L 6.40625 -20.515625 L 6.40625 -15.390625 L 21.796875 -15.390625 Z M 6.40625 -5.125 L 21.796875 -5.125 L 21.796875 -10.265625 L 6.40625 -10.265625 Z M 6.40625 -5.125 "/></g></g></g><g fill="#ffffff" fill-opacity="1"><g transform="translate(169.410464, 71.848537)"><g><path d="M 21.796875 0 L 6.40625 0 C 5.46875 0 4.609375 -0.226562 3.828125 -0.6875 C 3.046875 -1.144531 2.425781 -1.765625 1.96875 -2.546875 C 1.507812 -3.328125 1.28125 -4.1875 1.28125 -5.125 L 1.28125 -20.515625 C 1.28125 -21.460938 1.507812 -22.320312 1.96875 -23.09375 C 2.425781 -23.875 3.046875 -24.492188 3.828125 -24.953125 C 4.609375 -25.421875 5.46875 -25.65625 6.40625 -25.65625 L 21.796875 -25.65625 C 22.742188 -25.65625 23.601562 -25.421875 24.375 -24.953125 C 25.15625 -24.492188 25.773438 -23.875 26.234375 -23.09375 C 26.703125 -22.320312 26.9375 -21.460938 26.9375 -20.515625 L 26.9375 -5.125 C 26.9375 -4.207031 26.703125 -3.359375 26.234375 -2.578125 C 25.773438 -1.796875 25.160156 -1.171875 24.390625 -0.703125 C 23.628906 -0.234375 22.765625 0 21.796875 0 Z M 6.40625 -20.515625 L 6.40625 -5.125 L 21.796875 -5.125 L 21.796875 -20.515625 Z M 6.40625 -20.515625 "/></g></g></g><g fill="#ffffff" fill-opacity="1"><g transform="translate(201.761891, 71.848537)"><g><path d="M 21.796875 0 L 6.40625 0 C 5.46875 0 4.609375 -0.226562 3.828125 -0.6875 C 3.046875 -1.144531 2.425781 -1.765625 1.96875 -2.546875 C 1.507812 -3.328125 1.28125 -4.1875 1.28125 -5.125 L 1.28125 -25.65625 L 6.40625 -25.65625 L 6.40625 -5.125 L 21.796875 -5.125 L 21.796875 -25.65625 L 26.9375 -25.65625 L 26.9375 -5.125 C 26.9375 -4.1875 26.703125 -3.328125 26.234375 -2.546875 C 25.773438 -1.765625 25.15625 -1.144531 24.375 -0.6875 C 23.601562 -0.226562 22.742188 0 21.796875 0 Z M 21.796875 0 "/></g></g></g><g fill="#ffffff" fill-opacity="1"><g transform="translate(234.11333, 71.848537)"><g><path d="M 26.9375 -25.65625 L 26.9375 -20.515625 L 16.671875 -20.515625 L 16.671875 0 L 11.546875 0 L 11.546875 -20.515625 L 1.28125 -20.515625 L 1.28125 -25.65625 Z M 26.9375 -25.65625 "/></g></g></g><g fill="#ffffff" fill-opacity="1"><g transform="translate(266.464768, 71.848537)"><g/></g></g><g fill="#ffffff" fill-opacity="1"><g transform="translate(284.708732, 71.848537)"><g><path d="M 6.40625 -25.65625 L 21.796875 -25.65625 C 22.742188 -25.65625 23.601562 -25.421875 24.375 -24.953125 C 25.15625 -24.492188 25.773438 -23.875 26.234375 -23.09375 C 26.703125 -22.320312 26.9375 -21.460938 26.9375 -20.515625 L 26.9375 0 L 21.796875 0 L 21.796875 -20.515625 L 16.671875 -20.515625 L 16.671875 0 L 11.546875 0 L 11.546875 -20.515625 L 6.40625 -20.515625 L 6.40625 0 L 1.28125 0 L 1.28125 -20.515625 C 1.28125 -21.460938 1.507812 -22.320312 1.96875 -23.09375 C 2.425781 -23.875 3.046875 -24.492188 3.828125 -24.953125 C 4.609375 -25.421875 5.46875 -25.65625 6.40625 -25.65625 Z M 6.40625 -25.65625 "/></g></g></g><g fill="#ffffff" fill-opacity="1"><g transform="translate(317.060171, 71.848537)"><g><path d="M 26.9375 -25.65625 L 26.9375 -20.515625 L 6.40625 -20.515625 L 6.40625 -15.390625 L 26.9375 -15.390625 L 26.9375 -10.265625 L 6.40625 -10.265625 L 6.40625 -5.125 L 26.9375 -5.125 L 26.9375 0 L 6.40625 0 C 5.46875 0 4.609375 -0.226562 3.828125 -0.6875 C 3.046875 -1.144531 2.425781 -1.765625 1.96875 -2.546875 C 1.507812 -3.328125 1.28125 -4.1875 1.28125 -5.125 L 1.28125 -20.515625 C 1.28125 -21.460938 1.507812 -22.320312 1.96875 -23.09375 C 2.425781 -23.875 3.046875 -24.492188 3.828125 -24.953125 C 4.609375 -25.421875 5.46875 -25.65625 6.40625 -25.65625 Z M 26.9375 -25.65625 "/></g></g></g></svg>