<svg xmlns="http://www.w3.org/2000/svg" xmlns:xlink="http://www.w3.org/1999/xlink" width="1200" zoomAndPan="magnify" viewBox="0 0 900 269.999989" height="360" preserveAspectRatio="xMidYMid meet" version="1.0"><defs><g/><clipPath id="61c7d6a3e3"><path d="M 805 0 L 881.933594 0 L 881.933594 71 L 805 71 Z M 805 0 " clip-rule="nonzero"/></clipPath><clipPath id="0674c986ad"><path d="M 800.183594 55 L 821 55 L 821 73.601562 L 800.183594 73.601562 Z M 800.183594 55 " clip-rule="nonzero"/></clipPath><clipPath id="c8ee6f5457"><path d="M 24 200 L 101 200 L 101 270 L 24 270 Z M 24 200 " clip-rule="nonzero"/></clipPath><clipPath id="bac23cf6c5"><path d="M -1.765625 239.914062 L 96.953125 184.414062 L 149.878906 278.558594 L 51.160156 334.054688 Z M -1.765625 239.914062 " clip-rule="nonzero"/></clipPath><clipPath id="ea81b86b92"><path d="M -1.765625 239.914062 L 96.953125 184.414062 L 149.878906 278.558594 L 51.160156 334.054688 Z M -1.765625 239.914062 " clip-rule="nonzero"/></clipPath><clipPath id="520b9839d0"><path d="M 75 196 L 106 196 L 106 224 L 75 224 Z M 75 196 " clip-rule="nonzero"/></clipPath><clipPath id="2a71134b8e"><path d="M -1.765625 239.914062 L 96.953125 184.414062 L 149.878906 278.558594 L 51.160156 334.054688 Z M -1.765625 239.914062 " clip-rule="nonzero"/></clipPath><clipPath id="7f22a1c528"><path d="M -1.765625 239.914062 L 96.953125 184.414062 L 149.878906 278.558594 L 51.160156 334.054688 Z M -1.765625 239.914062 " clip-rule="nonzero"/></clipPath></defs><g clip-path="url(#61c7d6a3e3)"><path fill="#c1ff72" d="M 874.324219 -19.375 C 874.578125 -18.355469 874.808594 -17.429688 875.019531 -16.535156 C 875.238281 -15.640625 875.441406 -14.785156 875.675781 -13.917969 C 876.121094 -12.183594 876.667969 -10.40625 877.296875 -8.152344 C 877.335938 -8 877.382812 -7.828125 877.4375 -7.636719 C 877.488281 -7.445312 877.53125 -7.238281 877.589844 -7.011719 C 877.613281 -6.898438 877.648438 -6.785156 877.671875 -6.664062 C 877.695312 -6.542969 877.726562 -6.417969 877.75 -6.289062 C 877.777344 -6.160156 877.808594 -6.027344 877.835938 -5.890625 C 877.867188 -5.757812 877.886719 -5.617188 877.914062 -5.472656 C 877.941406 -5.328125 877.96875 -5.179688 877.992188 -5.03125 L 878.066406 -4.570312 C 878.117188 -4.257812 878.152344 -3.929688 878.195312 -3.589844 L 878.207031 -3.496094 L 878.210938 -3.449219 L 878.21875 -3.363281 L 878.253906 -3.007812 C 878.261719 -2.890625 878.277344 -2.769531 878.28125 -2.652344 C 878.289062 -2.535156 878.296875 -2.414062 878.304688 -2.296875 C 878.3125 -2.175781 878.320312 -2.058594 878.324219 -1.933594 C 878.332031 -1.8125 878.332031 -1.691406 878.335938 -1.570312 L 878.34375 -1.207031 C 878.34375 -1.082031 878.34375 -0.960938 878.34375 -0.835938 C 878.339844 0.171875 878.261719 1.175781 878.113281 2.175781 L 878.085938 2.363281 L 878.050781 2.554688 C 878.027344 2.683594 878.003906 2.8125 877.980469 2.941406 C 877.960938 3.066406 877.929688 3.195312 877.902344 3.320312 C 877.875 3.445312 877.847656 3.578125 877.820312 3.707031 C 877.789062 3.835938 877.753906 3.960938 877.722656 4.089844 C 877.691406 4.21875 877.660156 4.347656 877.621094 4.476562 L 877.507812 4.859375 L 877.453125 5.054688 L 877.386719 5.246094 L 877.261719 5.628906 C 877.21875 5.757812 877.164062 5.886719 877.117188 6.011719 C 877.070312 6.136719 877.027344 6.269531 876.976562 6.394531 L 876.816406 6.777344 C 876.789062 6.839844 876.765625 6.90625 876.738281 6.96875 L 876.652344 7.160156 C 876.59375 7.285156 876.539062 7.414062 876.480469 7.539062 C 876.421875 7.667969 876.355469 7.792969 876.296875 7.917969 C 876.234375 8.046875 876.171875 8.171875 876.105469 8.296875 C 875.96875 8.546875 875.839844 8.800781 875.691406 9.046875 C 875.621094 9.171875 875.550781 9.296875 875.476562 9.421875 C 875.402344 9.542969 875.324219 9.667969 875.246094 9.789062 L 875.132812 9.976562 L 875.007812 10.167969 L 874.765625 10.53125 C 874.679688 10.652344 874.59375 10.773438 874.507812 10.894531 C 874.425781 11.015625 874.339844 11.136719 874.25 11.257812 C 874.070312 11.496094 873.890625 11.734375 873.699219 11.972656 C 873.605469 12.089844 873.515625 12.210938 873.417969 12.324219 L 873.121094 12.671875 C 873.074219 12.730469 873.027344 12.789062 872.976562 12.847656 L 872.820312 13.019531 L 872.515625 13.363281 L 872.199219 13.703125 C 872.09375 13.8125 871.988281 13.929688 871.875 14.039062 C 870.988281 14.949219 870.050781 15.804688 869.066406 16.609375 C 868.066406 17.429688 867.011719 18.214844 865.917969 18.960938 C 863.726562 20.457031 861.378906 21.808594 858.976562 23.039062 C 858.675781 23.195312 858.371094 23.34375 858.070312 23.496094 C 857.917969 23.574219 857.769531 23.644531 857.617188 23.71875 C 857.46875 23.792969 857.320312 23.867188 857.167969 23.9375 C 856.566406 24.222656 855.964844 24.496094 855.355469 24.757812 C 854.144531 25.277344 852.925781 25.738281 851.703125 26.125 C 849.261719 26.902344 846.796875 27.367188 844.484375 27.375 C 844.191406 27.378906 843.90625 27.367188 843.625 27.359375 C 843.34375 27.339844 843.058594 27.328125 842.785156 27.296875 C 842.503906 27.273438 842.234375 27.234375 841.960938 27.199219 C 841.691406 27.152344 841.421875 27.113281 841.160156 27.050781 C 840.898438 27.003906 840.640625 26.933594 840.386719 26.871094 C 840.257812 26.835938 840.132812 26.796875 840.007812 26.761719 L 839.820312 26.707031 L 839.644531 26.648438 C 839.410156 26.570312 839.179688 26.488281 838.957031 26.394531 C 838.734375 26.304688 838.519531 26.203125 838.308594 26.097656 C 837.472656 25.671875 836.761719 25.148438 836.257812 24.589844 C 836.136719 24.453125 836.023438 24.3125 835.917969 24.164062 C 835.820312 24.023438 835.730469 23.878906 835.652344 23.730469 C 835.511719 23.457031 835.414062 23.167969 835.359375 22.863281 C 835.265625 22.292969 835.347656 21.746094 835.597656 21.226562 C 835.835938 20.714844 836.210938 20.25 836.640625 19.851562 C 836.855469 19.652344 837.082031 19.46875 837.320312 19.304688 C 837.550781 19.140625 837.789062 18.992188 838.035156 18.859375 C 838.152344 18.789062 838.277344 18.734375 838.394531 18.671875 C 838.511719 18.609375 838.632812 18.558594 838.75 18.507812 L 838.921875 18.433594 L 839.09375 18.367188 C 839.207031 18.320312 839.320312 18.285156 839.429688 18.246094 C 839.816406 18.113281 840.214844 18.011719 840.621094 17.933594 C 840.707031 17.917969 840.789062 17.902344 840.875 17.890625 L 841.121094 17.859375 L 841.347656 17.828125 C 841.417969 17.820312 841.488281 17.816406 841.550781 17.808594 L 841.894531 17.78125 L 842.140625 17.769531 L 842.34375 17.761719 L 842.398438 17.761719 C 842.429688 17.761719 842.480469 17.761719 842.546875 17.761719 L 842.796875 17.761719 C 842.847656 17.761719 842.902344 17.761719 842.960938 17.761719 L 843.144531 17.769531 C 843.90625 17.800781 844.660156 17.902344 845.40625 18.070312 C 845.945312 18.191406 846.472656 18.34375 846.988281 18.527344 C 848.296875 18.996094 849.515625 19.640625 850.640625 20.457031 C 850.679688 20.484375 850.71875 20.511719 850.757812 20.539062 L 851.109375 20.808594 C 851.261719 20.929688 851.410156 21.058594 851.566406 21.1875 C 851.714844 21.320312 851.871094 21.453125 852.019531 21.59375 C 852.164062 21.734375 852.316406 21.875 852.457031 22.027344 C 853.054688 22.636719 853.582031 23.300781 854.039062 24.019531 C 854.277344 24.390625 854.488281 24.769531 854.679688 25.164062 C 854.773438 25.371094 854.871094 25.574219 854.957031 25.785156 C 854.996094 25.890625 855.046875 25.996094 855.085938 26.101562 C 855.121094 26.210938 855.164062 26.316406 855.203125 26.425781 C 855.820312 28.167969 856.074219 30.140625 855.902344 32.199219 C 855.730469 34.253906 855.140625 36.394531 854.160156 38.457031 C 853.914062 38.96875 853.644531 39.480469 853.347656 39.984375 C 853.273438 40.109375 853.199219 40.238281 853.125 40.363281 C 853.046875 40.488281 852.964844 40.613281 852.886719 40.734375 C 852.808594 40.859375 852.722656 40.984375 852.644531 41.113281 L 852.523438 41.300781 L 852.390625 41.484375 C 852.21875 41.726562 852.046875 41.976562 851.867188 42.222656 L 851.3125 42.945312 C 851.121094 43.1875 850.917969 43.425781 850.722656 43.664062 C 850.671875 43.722656 850.625 43.78125 850.574219 43.839844 L 850.105469 44.367188 C 849.25 45.308594 848.351562 46.210938 847.402344 47.0625 C 846.445312 47.933594 845.429688 48.765625 844.382812 49.570312 C 843.335938 50.378906 842.25 51.15625 841.144531 51.90625 L 840.304688 52.472656 L 839.453125 53.03125 L 837.757812 54.140625 C 835.492188 55.601562 833.246094 57.007812 831.019531 58.300781 L 829.351562 59.246094 L 829.144531 59.363281 L 828.933594 59.472656 L 827.691406 60.140625 L 827.28125 60.359375 C 827.140625 60.433594 827.003906 60.503906 826.863281 60.570312 L 826.039062 60.988281 L 825.632812 61.191406 C 825.496094 61.261719 825.359375 61.332031 825.222656 61.394531 L 824.5 61.738281 C 821.34375 63.238281 818.621094 64.285156 817.265625 64.824219 C 816.632812 65.066406 816.042969 65.304688 815.480469 65.539062 C 814.917969 65.773438 814.378906 65.992188 813.867188 66.21875 C 813.355469 66.445312 812.867188 66.667969 812.390625 66.894531 C 811.914062 67.117188 811.457031 67.34375 811.011719 67.578125 C 810.113281 68.039062 809.253906 68.519531 808.375 69.035156 C 807.5 69.554688 806.601562 70.109375 805.632812 70.722656 C 806.820312 70.574219 807.90625 70.433594 808.953125 70.273438 C 810 70.113281 811.003906 69.933594 812.019531 69.714844 C 812.527344 69.605469 813.039062 69.484375 813.5625 69.351562 C 814.085938 69.21875 814.617188 69.078125 815.167969 68.910156 C 815.71875 68.746094 816.285156 68.566406 816.878906 68.371094 C 817.46875 68.175781 818.085938 67.945312 818.730469 67.703125 C 819.082031 67.574219 819.519531 67.402344 820.027344 67.199219 L 820.851562 66.875 L 821.300781 66.699219 L 821.773438 66.5 L 822.785156 66.078125 C 822.960938 66.003906 823.140625 65.929688 823.324219 65.851562 L 823.875 65.605469 L 825.035156 65.089844 C 825.238281 65.003906 825.433594 64.90625 825.636719 64.8125 L 826.25 64.523438 L 827.007812 64.164062 C 827.148438 64.097656 827.292969 64.027344 827.4375 63.953125 L 827.867188 63.738281 L 828.726562 63.304688 C 828.871094 63.230469 829.015625 63.160156 829.160156 63.082031 L 829.589844 62.855469 L 830.453125 62.390625 L 830.886719 62.160156 L 831.105469 62.042969 L 831.320312 61.921875 L 833.046875 60.941406 C 835.347656 59.605469 837.644531 58.167969 839.945312 56.683594 L 841.660156 55.558594 L 842.523438 54.992188 L 843.390625 54.410156 C 844.546875 53.621094 845.683594 52.804688 846.796875 51.949219 C 847.910156 51.09375 848.996094 50.203125 850.03125 49.261719 C 851.0625 48.332031 852.042969 47.351562 852.976562 46.320312 L 853.320312 45.933594 L 853.492188 45.742188 C 853.546875 45.675781 853.601562 45.609375 853.65625 45.542969 C 853.875 45.28125 854.09375 45.019531 854.308594 44.753906 L 854.929688 43.941406 C 855.128906 43.667969 855.320312 43.390625 855.515625 43.117188 L 855.660156 42.910156 L 855.800781 42.699219 L 856.070312 42.277344 C 856.160156 42.132812 856.253906 41.996094 856.339844 41.851562 L 856.597656 41.425781 C 856.933594 40.847656 857.242188 40.261719 857.523438 39.671875 C 858.644531 37.308594 859.332031 34.851562 859.527344 32.433594 C 859.628906 31.242188 859.605469 30.050781 859.464844 28.863281 C 859.324219 27.714844 859.058594 26.597656 858.675781 25.503906 L 858.53125 25.109375 C 858.480469 24.976562 858.425781 24.847656 858.371094 24.71875 C 858.269531 24.457031 858.148438 24.203125 858.03125 23.953125 C 857.789062 23.453125 857.515625 22.96875 857.21875 22.496094 C 856.640625 21.59375 855.976562 20.761719 855.230469 19.996094 C 855.054688 19.804688 854.863281 19.632812 854.679688 19.453125 C 854.5 19.277344 854.304688 19.117188 854.121094 18.949219 C 853.925781 18.789062 853.738281 18.628906 853.546875 18.476562 L 853.257812 18.253906 L 853.113281 18.144531 L 852.96875 18.039062 C 851.546875 17.011719 850.011719 16.203125 848.359375 15.613281 C 847.6875 15.375 847.003906 15.175781 846.308594 15.019531 C 845.320312 14.796875 844.320312 14.664062 843.308594 14.621094 L 843.0625 14.609375 C 842.984375 14.609375 842.914062 14.609375 842.847656 14.609375 L 842.507812 14.609375 C 842.417969 14.609375 842.351562 14.609375 842.304688 14.609375 L 842.234375 14.613281 L 841.960938 14.625 L 841.621094 14.640625 L 841.15625 14.679688 C 841.070312 14.6875 840.976562 14.695312 840.878906 14.703125 L 840.570312 14.746094 L 840.234375 14.792969 C 840.113281 14.8125 839.984375 14.835938 839.855469 14.855469 C 839.261719 14.96875 838.679688 15.121094 838.105469 15.3125 C 837.949219 15.371094 837.785156 15.421875 837.621094 15.488281 L 837.371094 15.585938 L 837.121094 15.691406 C 836.953125 15.761719 836.785156 15.84375 836.609375 15.925781 C 836.441406 16.011719 836.261719 16.097656 836.089844 16.195312 C 835.726562 16.394531 835.375 16.613281 835.035156 16.851562 C 834.667969 17.109375 834.320312 17.386719 833.992188 17.691406 C 833.640625 18.015625 833.316406 18.367188 833.023438 18.742188 C 832.707031 19.148438 832.4375 19.585938 832.222656 20.050781 C 831.988281 20.546875 831.828125 21.070312 831.746094 21.609375 C 831.660156 22.183594 831.664062 22.753906 831.757812 23.328125 C 831.859375 23.921875 832.050781 24.488281 832.328125 25.023438 C 832.46875 25.296875 832.628906 25.5625 832.804688 25.8125 C 832.984375 26.070312 833.179688 26.3125 833.390625 26.542969 C 834.234375 27.472656 835.292969 28.230469 836.46875 28.832031 C 836.765625 28.980469 837.066406 29.121094 837.378906 29.25 C 837.691406 29.378906 838.007812 29.5 838.335938 29.609375 L 838.582031 29.6875 L 838.824219 29.757812 C 838.984375 29.804688 839.148438 29.855469 839.3125 29.898438 C 839.640625 29.980469 839.96875 30.066406 840.308594 30.132812 C 840.644531 30.207031 840.988281 30.261719 841.332031 30.320312 C 841.675781 30.363281 842.023438 30.414062 842.375 30.445312 C 842.722656 30.484375 843.078125 30.5 843.429688 30.523438 C 843.785156 30.535156 844.140625 30.546875 844.496094 30.542969 L 844.765625 30.542969 C 844.855469 30.542969 844.941406 30.539062 845.03125 30.535156 C 845.210938 30.527344 845.386719 30.523438 845.566406 30.515625 L 846.101562 30.480469 C 846.28125 30.472656 846.457031 30.453125 846.636719 30.433594 C 847.351562 30.367188 848.0625 30.273438 848.769531 30.144531 C 849.476562 30.015625 850.179688 29.867188 850.875 29.691406 C 851.570312 29.519531 852.261719 29.320312 852.945312 29.105469 C 854.3125 28.671875 855.652344 28.164062 856.964844 27.601562 C 857.625 27.320312 858.273438 27.027344 858.917969 26.71875 C 859.078125 26.644531 859.238281 26.566406 859.398438 26.488281 C 859.558594 26.410156 859.71875 26.332031 859.875 26.253906 C 860.191406 26.09375 860.507812 25.9375 860.820312 25.777344 C 863.339844 24.488281 865.820312 23.0625 868.171875 21.460938 C 869.34375 20.660156 870.484375 19.8125 871.574219 18.921875 C 872.65625 18.035156 873.683594 17.089844 874.660156 16.089844 C 874.785156 15.96875 874.898438 15.84375 875.019531 15.71875 L 875.371094 15.339844 L 875.886719 14.765625 C 875.941406 14.699219 875.996094 14.636719 876.050781 14.570312 L 876.382812 14.179688 C 876.492188 14.046875 876.59375 13.914062 876.703125 13.78125 C 876.917969 13.519531 877.117188 13.246094 877.320312 12.980469 C 877.425781 12.84375 877.519531 12.707031 877.617188 12.570312 C 877.714844 12.433594 877.808594 12.296875 877.90625 12.160156 L 878.179688 11.742188 L 878.316406 11.535156 L 878.449219 11.324219 L 878.710938 10.90625 C 878.792969 10.761719 878.875 10.617188 878.957031 10.480469 C 879.125 10.195312 879.273438 9.90625 879.425781 9.621094 C 879.503906 9.476562 879.574219 9.332031 879.644531 9.1875 C 879.71875 9.042969 879.789062 8.902344 879.859375 8.753906 L 880.054688 8.316406 L 880.148438 8.101562 C 880.183594 8.027344 880.210938 7.953125 880.242188 7.878906 C 880.300781 7.734375 880.363281 7.585938 880.421875 7.441406 C 880.484375 7.296875 880.53125 7.148438 880.589844 7 C 880.644531 6.851562 880.699219 6.707031 880.75 6.558594 C 880.796875 6.410156 880.84375 6.265625 880.894531 6.117188 L 880.96875 5.898438 L 881.035156 5.675781 C 881.078125 5.527344 881.121094 5.382812 881.164062 5.234375 C 881.207031 5.085938 881.242188 4.941406 881.28125 4.792969 C 881.320312 4.644531 881.355469 4.5 881.390625 4.351562 C 881.429688 4.207031 881.453125 4.058594 881.488281 3.910156 C 881.519531 3.765625 881.550781 3.617188 881.578125 3.472656 L 881.65625 3.035156 C 881.667969 2.960938 881.683594 2.890625 881.695312 2.816406 C 881.707031 2.742188 881.714844 2.671875 881.726562 2.597656 C 881.898438 1.464844 881.984375 0.328125 881.988281 -0.8125 C 881.988281 -0.953125 881.988281 -1.089844 881.988281 -1.230469 C 881.988281 -1.367188 881.980469 -1.503906 881.976562 -1.640625 C 881.976562 -1.777344 881.972656 -1.910156 881.964844 -2.046875 C 881.960938 -2.183594 881.953125 -2.316406 881.941406 -2.449219 C 881.933594 -2.585938 881.925781 -2.71875 881.917969 -2.851562 C 881.910156 -2.984375 881.894531 -3.113281 881.882812 -3.246094 C 881.875 -3.378906 881.859375 -3.507812 881.847656 -3.640625 L 881.839844 -3.738281 L 881.828125 -3.824219 L 881.820312 -3.894531 C 881.773438 -4.265625 881.734375 -4.628906 881.675781 -4.976562 C 881.648438 -5.148438 881.621094 -5.316406 881.59375 -5.484375 C 881.566406 -5.648438 881.535156 -5.8125 881.503906 -5.96875 C 881.476562 -6.125 881.445312 -6.28125 881.417969 -6.429688 C 881.390625 -6.578125 881.355469 -6.722656 881.324219 -6.863281 C 881.292969 -7.003906 881.261719 -7.140625 881.234375 -7.273438 C 881.203125 -7.40625 881.171875 -7.53125 881.140625 -7.65625 C 881.078125 -7.898438 881.027344 -8.125 880.96875 -8.332031 C 880.914062 -8.539062 880.859375 -8.726562 880.8125 -8.890625 C 880.105469 -11.335938 879.191406 -13.144531 878.144531 -14.757812 C 877.613281 -15.5625 877.039062 -16.335938 876.414062 -17.074219 C 875.796875 -17.832031 875.09375 -18.578125 874.324219 -19.375 Z M 874.324219 -19.375 " fill-opacity="1" fill-rule="nonzero"/></g><g clip-path="url(#0674c986ad)"><path fill="#c1ff72" d="M 819.042969 55.191406 L 818.105469 56.195312 C 817.796875 56.503906 817.496094 56.800781 817.210938 57.09375 C 817.140625 57.171875 817.066406 57.238281 816.992188 57.308594 L 816.773438 57.519531 C 816.628906 57.660156 816.484375 57.800781 816.34375 57.941406 C 816.273438 58.011719 816.203125 58.082031 816.132812 58.152344 L 815.914062 58.355469 C 815.769531 58.492188 815.628906 58.628906 815.484375 58.769531 C 814.335938 59.878906 813.15625 61.058594 811.644531 62.578125 L 811.4375 62.789062 L 811.191406 63.027344 L 810.550781 63.648438 L 809.664062 64.476562 C 809.496094 64.636719 809.308594 64.800781 809.109375 64.980469 L 808.46875 65.554688 L 807.691406 66.226562 C 807.390625 66.488281 807.066406 66.757812 806.773438 67.011719 L 806.476562 67.265625 C 806.332031 67.386719 806.191406 67.5 806.058594 67.609375 L 805.351562 68.195312 L 804.699219 68.738281 L 804.203125 69.140625 L 802.953125 70.152344 L 801.332031 71.464844 L 800.503906 72.140625 L 800.300781 72.300781 L 800.203125 72.382812 L 800.191406 72.394531 L 800.183594 72.398438 L 800.179688 72.402344 L 800.210938 72.402344 L 800.269531 72.40625 L 800.710938 72.449219 L 801.105469 72.488281 L 803.234375 72.695312 L 804.214844 72.792969 L 805.15625 72.878906 L 806.042969 72.960938 L 806.863281 73.023438 L 807.632812 73.078125 L 808 73.105469 L 808.199219 73.117188 C 808.691406 73.144531 809.117188 73.167969 809.484375 73.183594 C 809.851562 73.199219 810.15625 73.214844 810.402344 73.21875 C 812.414062 73.289062 813.992188 73.148438 815.480469 72.863281 C 816.964844 72.574219 818.363281 72.128906 820.003906 71.519531 C 818.324219 71.089844 816.929688 70.730469 815.464844 70.476562 C 813.996094 70.21875 812.453125 70.058594 810.484375 69.96875 C 810.242188 69.957031 809.945312 69.941406 809.585938 69.921875 C 809.226562 69.902344 808.808594 69.878906 808.328125 69.851562 L 808.15625 69.839844 L 808.082031 69.839844 L 808.101562 69.839844 C 808.109375 69.839844 808.09375 69.847656 808.085938 69.847656 C 808.082031 69.847656 808.078125 69.847656 808.074219 69.847656 C 808.074219 69.847656 808.074219 69.847656 808.074219 69.851562 L 808.078125 69.84375 L 808.109375 69.820312 L 808.222656 69.726562 C 808.527344 69.46875 808.859375 69.191406 809.164062 68.925781 L 809.964844 68.226562 L 810.625 67.632812 C 810.832031 67.445312 811.027344 67.277344 811.203125 67.109375 C 811.558594 66.773438 811.863281 66.492188 812.125 66.242188 L 812.792969 65.585938 L 813.050781 65.332031 L 813.269531 65.105469 C 814.851562 63.480469 815.960938 61.984375 816.859375 60.414062 C 816.96875 60.21875 817.078125 60.019531 817.183594 59.820312 L 817.339844 59.523438 C 817.390625 59.425781 817.441406 59.320312 817.488281 59.21875 C 817.585938 59.011719 817.683594 58.804688 817.777344 58.597656 L 817.917969 58.285156 C 817.964844 58.179688 818.015625 58.078125 818.054688 57.964844 C 818.230469 57.53125 818.402344 57.089844 818.570312 56.632812 C 818.730469 56.167969 818.882812 55.6875 819.042969 55.191406 Z M 819.042969 55.191406 " fill-opacity="1" fill-rule="nonzero"/></g><g clip-path="url(#c8ee6f5457)"><g clip-path="url(#bac23cf6c5)"><g clip-path="url(#ea81b86b92)"><path fill="#ffffff" d="M 83.253906 315.972656 C 80.972656 315.335938 79.085938 314.796875 77.09375 314.339844 C 76.597656 314.230469 76.09375 314.117188 75.574219 314.015625 C 75.054688 313.910156 74.523438 313.808594 73.976562 313.710938 C 72.867188 313.511719 71.675781 313.328125 70.339844 313.136719 C 69.613281 313.027344 68.527344 312.871094 67.1875 312.636719 L 66.136719 312.445312 L 65 312.230469 L 64.367188 312.101562 C 64.113281 312.050781 63.855469 311.996094 63.597656 311.9375 C 63.082031 311.832031 62.558594 311.710938 62.027344 311.589844 C 60.96875 311.339844 59.890625 311.066406 58.789062 310.765625 C 56.507812 310.136719 54.265625 309.394531 52.058594 308.53125 C 49.738281 307.632812 47.492188 306.574219 45.316406 305.363281 C 43.117188 304.128906 41 302.707031 39.066406 301.070312 C 37.136719 299.4375 35.382812 297.613281 33.925781 295.609375 C 33.203125 294.617188 32.546875 293.582031 31.957031 292.503906 C 30.816406 290.402344 29.96875 288.1875 29.421875 285.859375 C 29.28125 285.296875 29.171875 284.730469 29.070312 284.167969 C 29.023438 283.882812 28.976562 283.605469 28.933594 283.324219 C 28.894531 283.042969 28.851562 282.761719 28.824219 282.484375 C 28.574219 280.332031 28.519531 278.175781 28.667969 276.015625 C 28.800781 274.089844 29.058594 272.183594 29.445312 270.289062 C 30.027344 267.476562 30.832031 264.730469 31.851562 262.046875 C 32.210938 261.082031 32.527344 260.335938 32.738281 259.828125 L 33.070312 259.054688 L 33.152344 258.859375 L 33.410156 258.285156 C 33.636719 257.78125 33.980469 257.050781 34.4375 256.125 C 35.730469 253.53125 37.167969 251.027344 38.75 248.601562 C 39.242188 247.839844 39.773438 247.054688 40.339844 246.25 C 40.90625 245.445312 41.503906 244.621094 42.140625 243.78125 C 42.773438 242.941406 43.441406 242.085938 44.148438 241.222656 C 44.855469 240.363281 45.605469 239.496094 46.367188 238.613281 C 49.457031 235.109375 53.058594 231.535156 56.976562 228.132812 C 58.933594 226.429688 60.96875 224.765625 63.050781 223.171875 C 65.132812 221.574219 67.265625 220.042969 69.398438 218.582031 C 71.53125 217.117188 73.675781 215.738281 75.789062 214.441406 L 77.371094 213.488281 C 77.894531 213.175781 78.417969 212.871094 78.9375 212.566406 C 79.453125 212.261719 79.972656 211.96875 80.484375 211.679688 L 81.25 211.242188 L 81.925781 210.871094 C 85.070312 209.128906 87.710938 207.808594 89.027344 207.144531 C 91.464844 205.933594 93.332031 204.902344 95.0625 203.800781 C 95.496094 203.527344 95.921875 203.25 96.34375 202.964844 L 96.976562 202.535156 C 97.191406 202.390625 97.402344 202.242188 97.617188 202.09375 C 98.46875 201.488281 99.347656 200.863281 100.304688 200.164062 C 99.136719 200.332031 98.054688 200.492188 97.027344 200.695312 C 96.765625 200.746094 96.511719 200.796875 96.257812 200.847656 L 95.878906 200.929688 L 95.5 201.015625 C 95 201.136719 94.5 201.261719 94 201.398438 C 92 201.960938 89.949219 202.722656 87.445312 203.933594 C 86.097656 204.597656 83.398438 205.9375 80.183594 207.714844 L 79.492188 208.097656 L 78.710938 208.539062 C 78.1875 208.839844 77.65625 209.132812 77.128906 209.449219 C 76.601562 209.761719 76.0625 210.070312 75.527344 210.390625 L 73.910156 211.367188 C 71.746094 212.691406 69.554688 214.109375 67.367188 215.601562 C 65.179688 217.097656 63 218.671875 60.863281 220.3125 C 58.726562 221.953125 56.636719 223.660156 54.621094 225.410156 C 50.585938 228.914062 46.867188 232.601562 43.671875 236.238281 C 42.878906 237.152344 42.101562 238.050781 41.371094 238.949219 C 40.640625 239.847656 39.941406 240.738281 39.277344 241.613281 C 38.617188 242.488281 37.988281 243.34375 37.402344 244.1875 C 36.8125 245.03125 36.257812 245.847656 35.742188 246.644531 C 34.085938 249.1875 32.582031 251.816406 31.230469 254.535156 C 30.746094 255.511719 30.390625 256.285156 30.148438 256.8125 L 29.878906 257.414062 L 29.789062 257.621094 L 29.4375 258.4375 C 29.214844 258.972656 28.882812 259.757812 28.5 260.78125 C 27.410156 263.644531 26.550781 266.578125 25.929688 269.578125 C 25.511719 271.625 25.226562 273.695312 25.082031 275.78125 C 24.917969 278.160156 24.972656 280.535156 25.246094 282.90625 C 25.277344 283.21875 25.328125 283.53125 25.371094 283.84375 C 25.410156 284.160156 25.46875 284.472656 25.523438 284.785156 C 25.640625 285.417969 25.761719 286.050781 25.914062 286.6875 C 26.21875 287.984375 26.609375 289.253906 27.082031 290.5 C 27.566406 291.777344 28.136719 293.019531 28.785156 294.21875 C 29.449219 295.441406 30.191406 296.609375 31.011719 297.730469 C 31.835938 298.863281 32.730469 299.9375 33.695312 300.957031 C 34.65625 301.972656 35.671875 302.929688 36.738281 303.832031 C 38.871094 305.632812 41.179688 307.179688 43.542969 308.507812 C 45.863281 309.804688 48.261719 310.933594 50.738281 311.894531 C 53.058594 312.796875 55.421875 313.578125 57.824219 314.238281 C 58.976562 314.554688 60.105469 314.839844 61.207031 315.097656 C 61.761719 315.222656 62.304688 315.351562 62.839844 315.460938 C 63.109375 315.519531 63.375 315.574219 63.640625 315.628906 L 64.300781 315.761719 L 65.480469 315.984375 L 66.570312 316.179688 C 67.960938 316.417969 69.085938 316.574219 69.839844 316.679688 C 71.222656 316.867188 72.46875 316.964844 73.625 317.007812 C 74.203125 317.03125 74.757812 317.03125 75.300781 317.027344 C 75.84375 317.019531 76.371094 316.996094 76.890625 316.960938 C 78.972656 316.816406 80.9375 316.480469 83.253906 315.972656 Z M 83.253906 315.972656 " fill-opacity="1" fill-rule="nonzero"/></g></g></g><g clip-path="url(#520b9839d0)"><g clip-path="url(#2a71134b8e)"><g clip-path="url(#7f22a1c528)"><path fill="#ffffff" d="M 75.691406 196.40625 C 80.0625 198.230469 83.050781 199.3125 88.484375 200.167969 L 94.019531 201.023438 L 95.335938 201.230469 C 95.332031 201.226562 95.328125 201.226562 95.324219 201.226562 C 95.324219 201.21875 95.324219 201.21875 95.335938 201.21875 L 95.339844 201.214844 L 95.246094 201.285156 L 95 201.457031 C 93.636719 202.429688 92.328125 203.472656 91.070312 204.578125 C 90.65625 204.933594 90.277344 205.285156 89.914062 205.621094 C 89.734375 205.789062 89.558594 205.957031 89.390625 206.117188 C 89.21875 206.28125 89.054688 206.4375 88.898438 206.597656 L 88.441406 207.054688 C 88.292969 207.203125 88.152344 207.351562 88.011719 207.496094 L 87.613281 207.910156 L 87.246094 208.308594 L 86.902344 208.683594 L 86.589844 209.039062 C 86.390625 209.269531 86.203125 209.480469 86.035156 209.679688 L 85.574219 210.230469 L 85.207031 210.691406 C 84.390625 211.707031 83.660156 212.777344 83.011719 213.902344 C 82.453125 214.875 81.976562 215.886719 81.582031 216.9375 C 81.210938 217.933594 80.921875 218.953125 80.710938 219.996094 C 80.488281 221.097656 80.355469 222.210938 80.308594 223.332031 C 80.90625 222.308594 81.511719 221.425781 82.105469 220.589844 C 82.695312 219.757812 83.289062 218.980469 83.886719 218.1875 C 84.484375 217.398438 85.109375 216.601562 85.773438 215.734375 C 86.441406 214.871094 87.164062 213.945312 87.996094 212.921875 L 88.339844 212.5 L 88.769531 211.996094 C 88.921875 211.8125 89.097656 211.617188 89.285156 211.40625 L 89.574219 211.078125 L 89.894531 210.734375 L 90.234375 210.367188 L 90.601562 209.980469 C 90.730469 209.847656 90.859375 209.710938 91 209.574219 L 91.425781 209.148438 C 91.570312 209.003906 91.722656 208.855469 91.882812 208.707031 C 92.039062 208.554688 92.199219 208.402344 92.367188 208.246094 C 92.707031 207.9375 93.0625 207.605469 93.445312 207.277344 C 94.429688 206.410156 95.863281 205.246094 97.097656 204.367188 L 97.6875 203.945312 C 97.835938 203.839844 97.988281 203.738281 98.136719 203.640625 L 98.578125 203.351562 L 99.394531 202.820312 L 99.761719 202.582031 L 99.9375 202.46875 C 99.992188 202.433594 100.054688 202.398438 100.113281 202.363281 L 101.613281 201.46875 L 105.046875 199.445312 L 105.320312 199.289062 L 105.507812 199.179688 C 105.523438 199.167969 105.542969 199.15625 105.558594 199.148438 L 105.503906 199.140625 L 105.390625 199.125 L 104.164062 198.933594 L 100.691406 198.398438 L 96.703125 197.789062 L 94.5625 197.464844 C 91.445312 196.996094 89.949219 196.769531 89.027344 196.628906 C 83.585938 195.828125 80.40625 195.96875 75.691406 196.40625 Z M 75.691406 196.40625 " fill-opacity="1" fill-rule="nonzero"/></g></g></g><g fill="#ffffff" fill-opacity="1"><g transform="translate(74.667904, 160.615168)"><g><path d="M 114.390625 0 L 85.4375 0 L 79.03125 -11.15625 L 36.078125 -11.15625 L 29.65625 0 L 0.71875 0 L 44.28125 -68.0625 L 70.8125 -68.0625 Z M 69.390625 -28 L 57.578125 -48.65625 L 45.703125 -28 Z M 69.390625 -28 "/></g></g></g><g fill="#ffffff" fill-opacity="1"><g transform="translate(189.755118, 160.615168)"><g><path d="M 56.4375 0 L 7.59375 0 L 7.59375 -68.0625 L 57.484375 -68.0625 C 66.335938 -68.0625 73.628906 -67.65625 79.359375 -66.84375 C 85.085938 -66.039062 89.5 -64.773438 92.59375 -63.046875 C 95.695312 -61.328125 97.800781 -59.140625 98.90625 -56.484375 C 100.019531 -53.828125 100.578125 -50.644531 100.578125 -46.9375 C 100.484375 -44.03125 99.679688 -41.617188 98.171875 -39.703125 C 96.671875 -37.785156 94.914062 -36.359375 92.90625 -35.421875 C 90.894531 -34.492188 89.128906 -34.03125 87.609375 -34.03125 C 89.097656 -34.03125 90.835938 -33.738281 92.828125 -33.15625 C 94.828125 -32.570312 96.765625 -31.722656 98.640625 -30.609375 C 100.523438 -29.503906 102.09375 -28.160156 103.34375 -26.578125 C 104.59375 -24.992188 105.21875 -23.191406 105.21875 -21.171875 C 105.21875 -18.515625 104.910156 -16.078125 104.296875 -13.859375 C 103.679688 -11.640625 102.445312 -9.675781 100.59375 -7.96875 C 98.738281 -6.257812 96.007812 -4.8125 92.40625 -3.625 C 88.800781 -2.4375 84.078125 -1.535156 78.234375 -0.921875 C 72.398438 -0.304688 65.132812 0 56.4375 0 Z M 54.8125 -39.875 C 58.988281 -39.875 62.222656 -40.078125 64.515625 -40.484375 C 66.816406 -40.898438 68.410156 -41.523438 69.296875 -42.359375 C 70.179688 -43.203125 70.625 -44.269531 70.625 -45.5625 C 70.625 -46.894531 70.179688 -47.976562 69.296875 -48.8125 C 68.410156 -49.65625 66.816406 -50.273438 64.515625 -50.671875 C 62.222656 -51.066406 58.988281 -51.265625 54.8125 -51.265625 L 36.171875 -51.265625 L 36.171875 -39.875 Z M 54.8125 -16.796875 C 59.09375 -16.796875 62.5625 -16.90625 65.21875 -17.125 C 67.875 -17.351562 69.816406 -17.863281 71.046875 -18.65625 C 72.285156 -19.445312 72.90625 -20.726562 72.90625 -22.5 C 72.90625 -24.269531 72.285156 -25.554688 71.046875 -26.359375 C 69.816406 -27.171875 67.875 -27.675781 65.21875 -27.875 C 62.5625 -28.082031 59.09375 -28.1875 54.8125 -28.1875 L 36.171875 -28.1875 L 36.171875 -16.796875 Z M 54.8125 -16.796875 "/></g></g></g><g fill="#ffffff" fill-opacity="1"><g transform="translate(298.767624, 160.615168)"><g><path d="M 51.5 1.46875 C 34.664062 1.46875 22.273438 -1.992188 14.328125 -8.921875 C 7.304688 -15.054688 3.796875 -23.425781 3.796875 -34.03125 C 3.796875 -44.601562 7.304688 -52.957031 14.328125 -59.09375 C 22.273438 -66.019531 34.664062 -69.484375 51.5 -69.484375 C 68.332031 -69.484375 80.71875 -66.019531 88.65625 -59.09375 C 95.6875 -52.957031 99.203125 -44.601562 99.203125 -34.03125 C 99.203125 -23.425781 95.6875 -15.054688 88.65625 -8.921875 C 80.71875 -1.992188 68.332031 1.46875 51.5 1.46875 Z M 51.5 -16.796875 C 58.394531 -16.796875 63.457031 -18.773438 66.6875 -22.734375 C 69.28125 -25.929688 70.578125 -29.695312 70.578125 -34.03125 C 70.578125 -38.363281 69.28125 -42.113281 66.6875 -45.28125 C 63.457031 -49.269531 58.394531 -51.265625 51.5 -51.265625 C 44.601562 -51.265625 39.523438 -49.269531 36.265625 -45.28125 C 33.671875 -42.113281 32.375 -38.363281 32.375 -34.03125 C 32.375 -29.695312 33.671875 -25.929688 36.265625 -22.734375 C 39.523438 -18.773438 44.601562 -16.796875 51.5 -16.796875 Z M 51.5 -16.796875 "/></g></g></g><g fill="#ffffff" fill-opacity="1"><g transform="translate(401.752883, 160.615168)"><g><path d="M 47.890625 1.46875 C 31.273438 1.46875 19.582031 -1.976562 12.8125 -8.875 C 7.113281 -14.664062 4.265625 -23.035156 4.265625 -33.984375 L 4.265625 -68.0625 L 32.84375 -68.0625 L 32.84375 -33.984375 C 32.84375 -29.234375 33.648438 -25.484375 35.265625 -22.734375 C 37.578125 -18.773438 41.785156 -16.796875 47.890625 -16.796875 C 54.054688 -16.796875 58.28125 -18.773438 60.5625 -22.734375 C 62.175781 -25.578125 62.984375 -29.328125 62.984375 -33.984375 L 62.984375 -68.0625 L 91.5625 -68.0625 L 91.5625 -33.609375 C 91.5625 -22.910156 88.726562 -14.664062 83.0625 -8.875 C 76.257812 -1.976562 64.535156 1.46875 47.890625 1.46875 Z M 47.890625 1.46875 "/></g></g></g><g fill="#ffffff" fill-opacity="1"><g transform="translate(497.571876, 160.615168)"><g><path d="M 58.09375 0 L 29.515625 0 L 29.515625 -51.265625 L 2.84375 -51.265625 L 2.84375 -68.109375 L 84.765625 -68.109375 L 84.765625 -51.265625 L 58.09375 -51.265625 Z M 58.09375 0 "/></g></g></g><g fill="#ffffff" fill-opacity="1"><g transform="translate(585.180556, 160.615168)"><g/></g></g><g fill="#ffffff" fill-opacity="1"><g transform="translate(609.289548, 160.615168)"><g><path d="M 137.078125 0 L 108.5 0 L 108.5 -43.421875 L 82.96875 0 L 61.65625 0 L 36.171875 -43.421875 L 36.171875 0 L 7.59375 0 L 7.59375 -68.109375 L 41.53125 -68.109375 L 72.328125 -19.453125 L 103.09375 -68.109375 L 137.078125 -68.109375 Z M 137.078125 0 "/></g></g></g><g fill="#ffffff" fill-opacity="1"><g transform="translate(753.943499, 160.615168)"><g><path d="M 89.609375 0 L 7.59375 0 L 7.59375 -68.109375 L 85.859375 -68.109375 L 85.859375 -51.265625 L 36.171875 -51.265625 L 36.171875 -40.578125 L 78.171875 -40.578125 L 78.171875 -27.484375 L 36.171875 -27.484375 L 36.171875 -16.84375 L 89.609375 -16.84375 Z M 89.609375 0 "/></g></g></g><path stroke-linecap="butt" transform="matrix(0.75, 0, 0, 0.75, 45.000015, 67.499987)" fill="none" stroke-linejoin="miter" d="M 177.385412 131.000028 L 138.781242 131.000028 L 130.239575 116.130235 L 72.968737 116.130235 L 64.427069 131.000028 L 25.822899 131.000028 L 83.916654 40.255229 L 119.291657 40.255229 Z M 117.390615 93.661483 L 101.635406 66.135439 L 85.812488 93.661483 Z M 253.56771 131.000028 L 188.447913 131.000028 L 188.447913 40.255229 L 254.958335 40.255229 C 266.770836 40.255229 276.494795 40.791687 284.130212 41.869812 C 291.76563 42.942729 297.651047 44.630229 301.786464 46.932313 C 305.921881 49.229188 308.723964 52.151063 310.203131 55.69273 C 311.67709 59.239605 312.416673 63.479189 312.416673 68.416689 C 312.291673 72.296898 311.223964 75.51044 309.223964 78.067732 C 307.218756 80.619815 304.875006 82.515649 302.197922 83.760441 C 299.520839 85.005232 297.166672 85.625024 295.14063 85.625024 C 297.125005 85.625024 299.442714 86.015649 302.104172 86.796899 C 304.760422 87.578149 307.343756 88.708358 309.854173 90.182316 C 312.36459 91.661483 314.453131 93.45315 316.119798 95.562525 C 317.786465 97.6719 318.619798 100.07815 318.619798 102.776067 C 318.619798 106.317734 318.20834 109.567734 317.385423 112.52086 C 316.562507 115.473985 314.916673 118.088568 312.447923 120.369819 C 309.979173 122.64586 306.343756 124.578152 301.531255 126.161486 C 296.723963 127.739611 290.427088 128.942736 282.645837 129.765653 C 274.859378 130.588569 265.166669 131.000028 253.56771 131.000028 Z M 251.416668 77.843773 C 256.984377 77.843773 261.296877 77.567732 264.354169 77.020857 C 267.416669 76.473982 269.536461 75.640648 270.713544 74.520856 C 271.895836 73.401065 272.489586 71.97919 272.489586 70.250023 C 272.489586 68.479189 271.895836 67.031273 270.713544 65.916689 C 269.536461 64.796897 267.416669 63.973981 264.354169 63.447939 C 261.296877 62.921897 256.984377 62.656272 251.416668 62.656272 L 226.546874 62.656272 L 226.546874 77.843773 Z M 251.416668 108.598984 C 257.109377 108.598984 261.729169 108.453151 265.270836 108.156276 C 268.817711 107.859401 271.411461 107.187526 273.057295 106.130234 C 274.703128 105.078151 275.526045 103.364609 275.526045 101.005234 C 275.526045 98.64065 274.703128 96.9219 273.057295 95.848983 C 271.411461 94.770858 268.817711 94.098983 265.270836 93.822941 C 261.729169 93.5469 257.109377 93.411483 251.416668 93.411483 L 226.546874 93.411483 L 226.546874 108.598984 Z M 392.333346 132.96357 C 369.890636 132.96357 353.37501 128.343778 342.786467 119.104193 C 333.421883 110.916693 328.739591 99.760442 328.739591 85.625024 C 328.739591 71.536481 333.421883 60.401064 342.786467 52.213563 C 353.37501 42.973979 369.890636 38.354187 392.333346 38.354187 C 414.776056 38.354187 431.296891 42.973979 441.885434 52.213563 C 451.250018 60.401064 455.93231 71.536481 455.93231 85.625024 C 455.93231 99.760442 451.250018 110.916693 441.885434 119.104193 C 431.296891 128.343778 414.776056 132.96357 392.333346 132.96357 Z M 392.333346 108.598984 C 401.531264 108.598984 408.281264 105.963567 412.583348 100.687525 C 416.041681 96.427108 417.776057 91.406275 417.776057 85.625024 C 417.776057 79.848982 416.041681 74.848982 412.583348 70.630231 C 408.281264 65.312522 401.531264 62.656272 392.333346 62.656272 C 383.135429 62.656272 376.364595 65.312522 372.020844 70.630231 C 368.562511 74.848982 366.833344 79.848982 366.833344 85.625024 C 366.833344 91.406275 368.562511 96.427108 372.020844 100.687525 C 376.364595 105.963567 383.135429 108.598984 392.333346 108.598984 Z M 524.838565 132.96357 C 502.69273 132.96357 487.104187 128.364611 478.072937 119.166694 C 470.479186 111.447943 466.682311 100.286484 466.682311 85.692732 L 466.682311 40.255229 L 504.781272 40.255229 L 504.781272 85.692732 C 504.781272 92.020858 505.854189 97.01565 508.005231 100.687525 C 511.088564 105.963567 516.69794 108.598984 524.838565 108.598984 C 533.067733 108.598984 538.697942 105.963567 541.7344 100.687525 C 543.885442 96.89065 544.963567 91.89065 544.963567 85.692732 L 544.963567 40.255229 L 583.05732 40.255229 L 583.05732 86.197941 C 583.05732 100.458359 579.281278 111.447943 571.729194 119.166694 C 562.661485 128.364611 547.031276 132.96357 524.838565 132.96357 Z M 666.20316 131.000028 L 628.109407 131.000028 L 628.109407 62.656272 L 592.541696 62.656272 L 592.541696 40.192729 L 701.765663 40.192729 L 701.765663 62.656272 L 666.20316 62.656272 Z M 920.45839 131.000028 L 882.364637 131.000028 L 882.364637 73.098981 L 848.317759 131.000028 L 819.906298 131.000028 L 785.92192 73.098981 L 785.92192 131.000028 L 747.828167 131.000028 L 747.828167 40.192729 L 793.072963 40.192729 L 834.145883 105.052109 L 875.151094 40.192729 L 920.45839 40.192729 Z M 1050.05215 131.000028 L 940.703183 131.000028 L 940.703183 40.192729 L 1045.05215 40.192729 L 1045.05215 62.656272 L 978.796936 62.656272 L 978.796936 76.895857 L 1034.802149 76.895857 L 1034.802149 94.3594 L 978.796936 94.3594 L 978.796936 108.536484 L 1050.05215 108.536484 Z M 1050.05215 131.000028 " stroke="#ffffff" stroke-width="0.891" stroke-opacity="1" stroke-miterlimit="4"/><g fill="#c1ff72" fill-opacity="1"><g transform="translate(292.585776, 197.52158)"><g><path d="M 90.078125 -10.34375 C 90.191406 -9.75 90.097656 -9.269531 89.796875 -8.90625 C 89.503906 -8.550781 89.054688 -8.460938 88.453125 -8.640625 C 85.992188 -9.421875 83.488281 -9.929688 80.9375 -10.171875 C 78.382812 -10.410156 75.820312 -10.53125 73.25 -10.53125 C 72.769531 -9.332031 72.273438 -8.101562 71.765625 -6.84375 C 71.253906 -5.582031 70.789062 -4.351562 70.375 -3.15625 C 69.832031 -1.707031 69.332031 -0.265625 68.875 1.171875 C 68.425781 2.609375 67.992188 4.046875 67.578125 5.484375 C 67.398438 6.203125 67.21875 6.90625 67.03125 7.59375 C 66.851562 8.289062 66.707031 8.96875 66.59375 9.625 C 66.53125 9.863281 66.5 10.148438 66.5 10.484375 C 66.5 10.816406 66.46875 11.101562 66.40625 11.34375 C 66.40625 11.457031 66.40625 11.578125 66.40625 11.703125 C 66.820312 11.992188 67.210938 12.347656 67.578125 12.765625 C 67.941406 13.191406 68.179688 13.644531 68.296875 14.125 C 68.359375 14.664062 68.253906 15.128906 67.984375 15.515625 C 67.710938 15.910156 67.25 15.988281 66.59375 15.75 C 64.789062 15.082031 63.539062 14.117188 62.84375 12.859375 C 62.15625 11.609375 61.828125 10.203125 61.859375 8.640625 C 61.890625 7.078125 62.085938 5.515625 62.453125 3.953125 C 63.046875 1.492188 63.75 -0.929688 64.5625 -3.328125 C 65.375 -5.722656 66.257812 -8.09375 67.21875 -10.4375 C 60.195312 -10.195312 53.328125 -9.535156 46.609375 -8.453125 C 45.046875 -8.210938 43.425781 -7.945312 41.75 -7.65625 C 34.007812 2.601562 27.410156 13.582031 21.953125 25.28125 C 21.648438 25.820312 21.210938 26.0625 20.640625 26 C 20.078125 25.945312 19.492188 25.675781 18.890625 25.1875 C 18.296875 24.707031 17.816406 24.15625 17.453125 23.53125 C 17.097656 22.90625 17.039062 22.347656 17.28125 21.859375 C 21.832031 12.203125 27.140625 2.96875 33.203125 -5.84375 C 24.203125 -3.625 15.382812 -0.71875 6.75 2.875 C 6.269531 3.113281 5.710938 3.050781 5.078125 2.6875 C 4.453125 2.332031 3.898438 1.851562 3.421875 1.25 C 2.941406 0.65625 2.671875 0.078125 2.609375 -0.484375 C 2.546875 -1.054688 2.785156 -1.460938 3.328125 -1.703125 C 14.546875 -6.441406 26.035156 -9.921875 37.796875 -12.140625 C 40.316406 -15.441406 42.863281 -18.625 45.4375 -21.6875 C 51.082031 -28.164062 57.144531 -34.253906 63.625 -39.953125 C 66.914062 -42.828125 70.359375 -45.644531 73.953125 -48.40625 C 77.554688 -51.164062 81.429688 -53.390625 85.578125 -55.078125 C 86.234375 -55.367188 86.96875 -55.1875 87.78125 -54.53125 C 88.59375 -53.875 89.117188 -53.273438 89.359375 -52.734375 C 90.078125 -50.992188 90.238281 -49.191406 89.84375 -47.328125 C 89.457031 -45.472656 88.8125 -43.644531 87.90625 -41.84375 C 87.007812 -40.039062 86.203125 -38.332031 85.484375 -36.71875 C 84.160156 -33.957031 82.835938 -31.210938 81.515625 -28.484375 C 80.203125 -25.753906 78.914062 -23.007812 77.65625 -20.25 C 76.8125 -18.507812 76.03125 -16.828125 75.3125 -15.203125 C 77.289062 -15.085938 79.269531 -14.894531 81.25 -14.625 C 83.226562 -14.351562 85.179688 -13.890625 87.109375 -13.234375 C 87.703125 -13.046875 88.3125 -12.679688 88.9375 -12.140625 C 89.570312 -11.609375 89.953125 -11.007812 90.078125 -10.34375 Z M 69.203125 -15.296875 C 70.578125 -18.410156 71.984375 -21.484375 73.421875 -24.515625 C 74.867188 -27.546875 76.3125 -30.5625 77.75 -33.5625 C 78.40625 -35 79.078125 -36.453125 79.765625 -37.921875 C 80.460938 -39.398438 81.140625 -40.859375 81.796875 -42.296875 C 82.148438 -43.078125 82.507812 -43.867188 82.875 -44.671875 C 83.238281 -45.484375 83.566406 -46.3125 83.859375 -47.15625 C 83.921875 -47.332031 83.992188 -47.507812 84.078125 -47.6875 C 84.171875 -47.875 84.28125 -48.054688 84.40625 -48.234375 C 81.226562 -46.554688 78.210938 -44.546875 75.359375 -42.203125 C 72.515625 -39.859375 69.769531 -37.519531 67.125 -35.1875 C 60.882812 -29.664062 55.066406 -23.753906 49.671875 -17.453125 C 49.066406 -16.859375 48.492188 -16.226562 47.953125 -15.5625 C 47.421875 -14.90625 46.914062 -14.25 46.4375 -13.59375 C 49.726562 -14.070312 53.039062 -14.445312 56.375 -14.71875 C 59.707031 -14.988281 63.019531 -15.179688 66.3125 -15.296875 C 67.332031 -15.296875 68.296875 -15.296875 69.203125 -15.296875 Z M 69.203125 -15.296875 "/></g></g></g><g fill="#c1ff72" fill-opacity="1"><g transform="translate(385.361065, 197.52158)"><g><path d="M 15.65625 -43.734375 C 15.957031 -44.273438 16.421875 -44.5 17.046875 -44.40625 C 17.679688 -44.3125 18.28125 -44.023438 18.84375 -43.546875 C 19.414062 -43.066406 19.867188 -42.523438 20.203125 -41.921875 C 20.535156 -41.328125 20.550781 -40.789062 20.25 -40.3125 C 17.789062 -36.226562 15.492188 -32.007812 13.359375 -27.65625 C 11.234375 -23.3125 9.238281 -18.890625 7.375 -14.390625 C 8.519531 -15.472656 9.734375 -16.285156 11.015625 -16.828125 C 12.304688 -17.367188 13.644531 -17.1875 15.03125 -16.28125 C 16.34375 -15.445312 17.207031 -14.367188 17.625 -13.046875 C 18.050781 -11.722656 18.175781 -10.328125 18 -8.859375 C 17.820312 -7.390625 17.550781 -5.992188 17.1875 -4.671875 C 16.53125 -2.515625 15.390625 -0.644531 13.765625 0.9375 C 12.148438 2.53125 10.140625 3.269531 7.734375 3.15625 C 7.191406 3.15625 6.632812 2.898438 6.0625 2.390625 C 5.5 1.878906 5.035156 1.304688 4.671875 0.671875 C 4.316406 0.046875 4.15625 -0.503906 4.1875 -0.984375 C 4.21875 -1.460938 4.59375 -1.675781 5.3125 -1.625 C 7.050781 -1.5625 8.503906 -2.097656 9.671875 -3.234375 C 10.835938 -4.378906 11.691406 -5.703125 12.234375 -7.203125 C 12.472656 -7.859375 12.640625 -8.515625 12.734375 -9.171875 C 12.828125 -9.835938 12.898438 -10.53125 12.953125 -11.25 C 12.773438 -11.070312 12.59375 -10.921875 12.40625 -10.796875 C 12.226562 -10.679688 12.050781 -10.5625 11.875 -10.4375 C 6.957031 -5.875 3.117188 -0.59375 0.359375 5.40625 C 0.179688 5.9375 -0.207031 6.175781 -0.8125 6.125 C -1.40625 6.0625 -2.003906 5.789062 -2.609375 5.3125 C -3.210938 4.832031 -3.691406 4.273438 -4.046875 3.640625 C -4.410156 3.015625 -4.472656 2.460938 -4.234375 1.984375 C -1.828125 -5.929688 1.019531 -13.757812 4.3125 -21.5 C 7.613281 -29.238281 11.394531 -36.648438 15.65625 -43.734375 Z M 15.65625 -43.734375 "/></g></g></g><g fill="#c1ff72" fill-opacity="1"><g transform="translate(408.487393, 197.52158)"><g><path d="M 10.53125 -11.875 C 10.769531 -9.539062 10.570312 -7.25 9.9375 -5 C 9.3125 -2.75 8.28125 -0.722656 6.84375 1.078125 C 5.519531 2.816406 3.910156 3.941406 2.015625 4.453125 C 0.128906 4.960938 -1.648438 4.285156 -3.328125 2.421875 C -4.828125 0.742188 -5.457031 -1.082031 -5.21875 -3.0625 C -4.976562 -5.039062 -4.195312 -6.957031 -2.875 -8.8125 C -1.5625 -10.675781 -0.0351562 -12.34375 1.703125 -13.8125 C 3.441406 -15.28125 5.035156 -16.375 6.484375 -17.09375 C 7.078125 -17.394531 7.75 -17.273438 8.5 -16.734375 C 9.25 -16.191406 9.832031 -15.515625 10.25 -14.703125 C 10.675781 -13.898438 10.679688 -13.257812 10.265625 -12.78125 C 10.378906 -12.476562 10.46875 -12.175781 10.53125 -11.875 Z M 4.40625 -5.84375 C 4.945312 -7.050781 5.335938 -8.3125 5.578125 -9.625 C 4.679688 -8.84375 3.875 -8.003906 3.15625 -7.109375 C 2.25 -5.972656 1.5 -4.742188 0.90625 -3.421875 C 0.71875 -3.117188 0.5625 -2.816406 0.4375 -2.515625 C 0.320312 -2.210938 0.207031 -1.914062 0.09375 -1.625 C 0.09375 -1.5625 0.078125 -1.410156 0.046875 -1.171875 C 0.015625 -0.929688 -0.03125 -0.722656 -0.09375 -0.546875 C 0.269531 -0.835938 0.613281 -1.085938 0.9375 -1.296875 C 1.269531 -1.515625 1.585938 -1.769531 1.890625 -2.0625 C 2.910156 -3.207031 3.75 -4.46875 4.40625 -5.84375 Z M 4.40625 -5.84375 "/></g></g></g><g fill="#c1ff72" fill-opacity="1"><g transform="translate(425.134769, 197.52158)"><g><path d="M 31.578125 -11.421875 C 32.117188 -11.960938 32.71875 -12.082031 33.375 -11.78125 C 34.039062 -11.488281 34.507812 -11.007812 34.78125 -10.34375 C 35.050781 -9.6875 34.945312 -9.085938 34.46875 -8.546875 C 32.664062 -6.691406 30.832031 -4.847656 28.96875 -3.015625 C 27.113281 -1.179688 25.132812 0.421875 23.03125 1.796875 C 22.007812 2.515625 20.957031 3.050781 19.875 3.40625 C 18.800781 3.769531 17.695312 3.59375 16.5625 2.875 C 15.351562 2.15625 14.554688 1.210938 14.171875 0.046875 C 13.785156 -1.117188 13.679688 -2.363281 13.859375 -3.6875 C 13.859375 -3.75 13.859375 -3.804688 13.859375 -3.859375 C 13.859375 -3.921875 13.890625 -3.984375 13.953125 -4.046875 C 12.503906 -2.722656 11.03125 -1.460938 9.53125 -0.265625 C 8.03125 0.929688 6.441406 2.007812 4.765625 2.96875 C 3.265625 3.863281 1.75 4.382812 0.21875 4.53125 C -1.300781 4.6875 -2.664062 3.957031 -3.875 2.34375 C -4.894531 0.957031 -5.253906 -0.691406 -4.953125 -2.609375 C -4.648438 -4.523438 -4.003906 -6.382812 -3.015625 -8.1875 C -2.023438 -9.988281 -1.050781 -11.457031 -0.09375 -12.59375 C 0.269531 -13.019531 0.765625 -13.125 1.390625 -12.90625 C 2.023438 -12.695312 2.609375 -12.320312 3.140625 -11.78125 C 3.679688 -11.25 4.070312 -10.664062 4.3125 -10.03125 C 4.550781 -9.40625 4.492188 -8.878906 4.140625 -8.453125 C 3.484375 -7.671875 2.910156 -6.84375 2.421875 -5.96875 C 1.941406 -5.101562 1.523438 -4.222656 1.171875 -3.328125 C 0.753906 -2.429688 0.453125 -1.648438 0.265625 -0.984375 C 0.984375 -1.347656 1.6875 -1.785156 2.375 -2.296875 C 3.070312 -2.804688 3.75 -3.300781 4.40625 -3.78125 C 6.625 -5.519531 8.738281 -7.332031 10.75 -9.21875 C 12.757812 -11.113281 14.785156 -12.988281 16.828125 -14.84375 C 17.429688 -15.382812 18.101562 -15.429688 18.84375 -14.984375 C 19.59375 -14.535156 20.222656 -13.921875 20.734375 -13.140625 C 21.242188 -12.359375 21.410156 -11.664062 21.234375 -11.0625 C 20.878906 -9.75 20.503906 -8.429688 20.109375 -7.109375 C 19.722656 -5.785156 19.378906 -4.46875 19.078125 -3.15625 C 19.015625 -2.914062 18.953125 -2.644531 18.890625 -2.34375 C 20.148438 -2.644531 21.585938 -3.332031 23.203125 -4.40625 C 24.828125 -5.488281 26.390625 -6.6875 27.890625 -8 C 29.390625 -9.320312 30.617188 -10.460938 31.578125 -11.421875 Z M 31.578125 -11.421875 "/></g></g></g><g fill="#c1ff72" fill-opacity="1"><g transform="translate(457.079726, 197.52158)"><g><path d="M 44.71875 -34.546875 C 45.257812 -34.253906 45.8125 -33.789062 46.375 -33.15625 C 46.945312 -32.53125 47.207031 -31.882812 47.15625 -31.21875 C 47.09375 -30.5625 46.820312 -30.1875 46.34375 -30.09375 C 45.863281 -30.007812 45.351562 -30.117188 44.8125 -30.421875 C 42.46875 -31.617188 40.003906 -32.425781 37.421875 -32.84375 C 34.847656 -33.257812 32.269531 -33.5625 29.6875 -33.75 C 24.59375 -34.039062 19.46875 -34.160156 14.3125 -34.109375 C 14.25 -34.109375 14.1875 -34.109375 14.125 -34.109375 C 14.0625 -34.109375 14.03125 -34.109375 14.03125 -34.109375 C 11.394531 -28.285156 8.984375 -22.375 6.796875 -16.375 C 4.609375 -10.375 2.867188 -4.285156 1.578125 1.890625 C 0.285156 8.066406 -0.300781 14.363281 -0.1875 20.78125 C -0.1875 21.5 -0.425781 21.890625 -0.90625 21.953125 C -1.382812 22.015625 -1.9375 21.847656 -2.5625 21.453125 C -3.195312 21.066406 -3.753906 20.585938 -4.234375 20.015625 C -4.710938 19.453125 -4.953125 18.898438 -4.953125 18.359375 C -5.128906 9.234375 -3.957031 0.320312 -1.4375 -8.375 C 1.082031 -17.070312 4.140625 -25.554688 7.734375 -33.828125 C -0.898438 -33.347656 -9.445312 -32.300781 -17.90625 -30.6875 C -18.445312 -30.5625 -19.03125 -30.707031 -19.65625 -31.125 C -20.289062 -31.550781 -20.832031 -32.0625 -21.28125 -32.65625 C -21.726562 -33.257812 -21.984375 -33.832031 -22.046875 -34.375 C -22.109375 -34.914062 -21.867188 -35.242188 -21.328125 -35.359375 C -16.171875 -36.316406 -10.984375 -37.097656 -5.765625 -37.703125 C -0.546875 -38.304688 4.703125 -38.664062 9.984375 -38.78125 C 10.941406 -40.882812 11.898438 -42.96875 12.859375 -45.03125 C 13.828125 -47.101562 14.820312 -49.160156 15.84375 -51.203125 C 16.082031 -51.742188 16.5 -51.96875 17.09375 -51.875 C 17.695312 -51.78125 18.296875 -51.492188 18.890625 -51.015625 C 19.492188 -50.535156 19.957031 -49.992188 20.28125 -49.390625 C 20.613281 -48.796875 20.660156 -48.257812 20.421875 -47.78125 C 19.703125 -46.28125 19 -44.796875 18.3125 -43.328125 C 17.625 -41.859375 16.921875 -40.40625 16.203125 -38.96875 C 19.378906 -38.96875 22.628906 -38.90625 25.953125 -38.78125 C 29.285156 -38.664062 32.554688 -38.289062 35.765625 -37.65625 C 38.972656 -37.03125 41.957031 -35.992188 44.71875 -34.546875 Z M 44.71875 -34.546875 "/></g></g></g><g fill="#c1ff72" fill-opacity="1"><g transform="translate(469.497764, 197.52158)"><g/></g></g><g fill="#c1ff72" fill-opacity="1"><g transform="translate(503.422403, 197.52158)"><g><path d="M 74.328125 -33.03125 C 75.765625 -32.300781 76.675781 -31.351562 77.0625 -30.1875 C 77.457031 -29.019531 77.535156 -27.757812 77.296875 -26.40625 C 77.054688 -25.0625 76.679688 -23.726562 76.171875 -22.40625 C 75.660156 -21.082031 75.195312 -19.882812 74.78125 -18.8125 C 73.9375 -16.644531 73.0625 -14.484375 72.15625 -12.328125 C 71.257812 -10.171875 70.421875 -7.984375 69.640625 -5.765625 C 69.285156 -4.921875 68.882812 -3.851562 68.4375 -2.5625 C 67.988281 -1.269531 67.671875 0.00390625 67.484375 1.265625 C 67.304688 2.523438 67.457031 3.632812 67.9375 4.59375 C 68.175781 5.132812 68.25 5.644531 68.15625 6.125 C 68.070312 6.601562 67.695312 6.867188 67.03125 6.921875 C 66.375 6.984375 65.726562 6.726562 65.09375 6.15625 C 64.46875 5.59375 64.035156 5.039062 63.796875 4.5 C 63.015625 3 62.695312 1.410156 62.84375 -0.265625 C 63 -1.953125 63.285156 -3.601562 63.703125 -5.21875 C 64.304688 -7.5 65.054688 -9.75 65.953125 -11.96875 C 66.859375 -14.1875 67.757812 -16.40625 68.65625 -18.625 C 69.257812 -20.0625 69.875 -21.53125 70.5 -23.03125 C 71.132812 -24.53125 71.691406 -26.03125 72.171875 -27.53125 C 71.867188 -27.351562 71.582031 -27.171875 71.3125 -26.984375 C 71.039062 -26.804688 70.785156 -26.628906 70.546875 -26.453125 C 69.523438 -25.671875 68.519531 -24.84375 67.53125 -23.96875 C 66.539062 -23.101562 65.566406 -22.253906 64.609375 -21.421875 C 62.265625 -19.203125 60.023438 -16.875 57.890625 -14.4375 C 55.765625 -12.007812 53.710938 -9.535156 51.734375 -7.015625 C 49.992188 -4.734375 48.328125 -2.378906 46.734375 0.046875 C 45.148438 2.472656 43.878906 5.035156 42.921875 7.734375 C 42.617188 8.515625 42.078125 8.738281 41.296875 8.40625 C 40.523438 8.082031 39.804688 7.53125 39.140625 6.75 C 38.484375 5.96875 38.15625 5.304688 38.15625 4.765625 C 38.21875 3.085938 38.578125 1.410156 39.234375 -0.265625 C 39.890625 -1.953125 40.519531 -3.570312 41.125 -5.125 C 42.144531 -7.582031 43.207031 -10.007812 44.3125 -12.40625 C 45.425781 -14.8125 46.523438 -17.242188 47.609375 -19.703125 C 48.984375 -22.941406 50.445312 -26.40625 52 -30.09375 C 53.5625 -33.789062 54.4375 -37.4375 54.625 -41.03125 C 53.539062 -40.488281 52.5625 -39.78125 51.6875 -38.90625 C 50.820312 -38.039062 49.96875 -37.191406 49.125 -36.359375 C 45.945312 -33.054688 42.929688 -29.570312 40.078125 -25.90625 C 37.234375 -22.25 34.492188 -18.5625 31.859375 -14.84375 C 28.140625 -9.6875 24.539062 -4.457031 21.0625 0.84375 C 17.582031 6.15625 14.160156 11.539062 10.796875 17 C 10.492188 17.539062 10.023438 17.765625 9.390625 17.671875 C 8.765625 17.585938 8.164062 17.304688 7.59375 16.828125 C 7.03125 16.347656 6.582031 15.789062 6.25 15.15625 C 5.925781 14.53125 5.910156 14.007812 6.203125 13.59375 C 9.566406 7.769531 12.882812 1.921875 16.15625 -3.953125 C 19.425781 -9.835938 22.378906 -15.898438 25.015625 -22.140625 C 26.210938 -24.835938 27.320312 -27.59375 28.34375 -30.40625 C 29.363281 -33.226562 30.265625 -36.109375 31.046875 -39.046875 C 31.222656 -39.773438 31.398438 -40.507812 31.578125 -41.25 C 31.765625 -42 31.859375 -42.765625 31.859375 -43.546875 C 31.859375 -43.609375 31.859375 -43.773438 31.859375 -44.046875 C 31.859375 -44.316406 31.828125 -44.570312 31.765625 -44.8125 C 31.585938 -44.8125 31.40625 -44.796875 31.21875 -44.765625 C 31.039062 -44.734375 30.863281 -44.6875 30.6875 -44.625 C 29.664062 -44.269531 28.6875 -43.773438 27.75 -43.140625 C 26.820312 -42.515625 25.910156 -41.84375 25.015625 -41.125 C 22.617188 -39.207031 20.382812 -37.03125 18.3125 -34.59375 C 16.238281 -32.164062 14.394531 -29.632812 12.78125 -27 C 11.28125 -24.539062 9.957031 -21.882812 8.8125 -19.03125 C 7.675781 -16.175781 7.226562 -13.28125 7.46875 -10.34375 C 7.53125 -9.625 7.257812 -9.25 6.65625 -9.21875 C 6.0625 -9.1875 5.550781 -9.289062 5.125 -9.53125 C 4.53125 -9.832031 3.992188 -10.28125 3.515625 -10.875 C 3.035156 -11.476562 2.765625 -12.113281 2.703125 -12.78125 C 2.398438 -16.613281 3.101562 -20.375 4.8125 -24.0625 C 6.519531 -27.757812 8.457031 -31.109375 10.625 -34.109375 C 12.476562 -36.742188 14.570312 -39.289062 16.90625 -41.75 C 19.25 -44.207031 21.800781 -46.28125 24.5625 -47.96875 C 26 -48.800781 27.484375 -49.320312 29.015625 -49.53125 C 30.546875 -49.738281 31.957031 -49.5 33.25 -48.8125 C 34.539062 -48.125 35.515625 -46.878906 36.171875 -45.078125 C 36.648438 -43.816406 36.828125 -42.507812 36.703125 -41.15625 C 36.585938 -39.8125 36.378906 -38.507812 36.078125 -37.25 C 35.660156 -35.269531 35.117188 -33.289062 34.453125 -31.3125 C 33.796875 -29.332031 33.109375 -27.382812 32.390625 -25.46875 C 34.847656 -28.769531 37.425781 -32.097656 40.125 -35.453125 C 42.832031 -38.816406 45.804688 -41.753906 49.046875 -44.265625 C 49.828125 -44.867188 50.722656 -45.453125 51.734375 -46.015625 C 52.753906 -46.585938 53.804688 -46.726562 54.890625 -46.4375 C 56.148438 -46.132812 57.171875 -45.425781 57.953125 -44.3125 C 58.734375 -43.207031 59.179688 -42.054688 59.296875 -40.859375 C 59.472656 -39.234375 59.378906 -37.566406 59.015625 -35.859375 C 58.660156 -34.148438 58.273438 -32.546875 57.859375 -31.046875 C 57.203125 -28.703125 56.421875 -26.40625 55.515625 -24.15625 C 54.617188 -21.90625 53.691406 -19.671875 52.734375 -17.453125 C 54.472656 -19.492188 56.285156 -21.472656 58.171875 -23.390625 C 60.066406 -25.316406 62.03125 -27.117188 64.0625 -28.796875 C 64.90625 -29.515625 65.894531 -30.304688 67.03125 -31.171875 C 68.175781 -32.046875 69.378906 -32.722656 70.640625 -33.203125 C 71.898438 -33.679688 73.128906 -33.625 74.328125 -33.03125 Z M 56.15625 -41.75 C 56.269531 -41.75 56.328125 -41.78125 56.328125 -41.84375 C 56.328125 -41.90625 56.269531 -41.875 56.15625 -41.75 Z M 32.75 -45 C 32.8125 -44.9375 32.859375 -44.929688 32.890625 -44.984375 C 32.921875 -45.046875 32.875 -45.050781 32.75 -45 Z M 54.53125 -43.28125 C 54.53125 -43.34375 54.53125 -43.375 54.53125 -43.375 C 54.46875 -43.375 54.46875 -43.34375 54.53125 -43.28125 Z M 72.703125 -30.6875 C 72.648438 -30.6875 72.648438 -30.625 72.703125 -30.5 C 72.765625 -30.625 72.765625 -30.6875 72.703125 -30.6875 Z M 72.703125 -30.6875 "/></g></g></g><g fill="#c1ff72" fill-opacity="1"><g transform="translate(583.509721, 197.52158)"><g><path d="M 23.390625 -11.25 C 23.992188 -11.726562 24.65625 -11.800781 25.375 -11.46875 C 26.09375 -11.144531 26.601562 -10.648438 26.90625 -9.984375 C 27.207031 -9.328125 27.054688 -8.816406 26.453125 -8.453125 C 22.910156 -6.117188 19.265625 -3.75 15.515625 -1.34375 C 11.765625 1.050781 7.882812 2.96875 3.875 4.40625 C 2.375 4.945312 0.90625 5.171875 -0.53125 5.078125 C -1.976562 4.992188 -3.238281 4.257812 -4.3125 2.875 C -5.394531 1.4375 -5.769531 -0.164062 -5.4375 -1.9375 C -5.113281 -3.707031 -4.441406 -5.398438 -3.421875 -7.015625 C -2.398438 -8.640625 -1.378906 -9.988281 -0.359375 -11.0625 C 0.535156 -12.082031 1.613281 -13.015625 2.875 -13.859375 C 4.132812 -14.703125 5.4375 -15.179688 6.78125 -15.296875 C 8.132812 -15.421875 9.382812 -14.851562 10.53125 -13.59375 C 11.550781 -12.570312 11.96875 -11.550781 11.78125 -10.53125 C 11.601562 -9.507812 11.050781 -8.5625 10.125 -7.6875 C 9.195312 -6.820312 8.101562 -6.03125 6.84375 -5.3125 C 5.582031 -4.59375 4.363281 -3.960938 3.1875 -3.421875 C 2.019531 -2.878906 1.109375 -2.425781 0.453125 -2.0625 C 0.148438 -1.40625 -0.0859375 -0.75 -0.265625 -0.09375 C 1.046875 -0.269531 2.753906 -0.75 4.859375 -1.53125 C 6.960938 -2.3125 9.195312 -3.269531 11.5625 -4.40625 C 13.9375 -5.550781 16.171875 -6.722656 18.265625 -7.921875 C 20.367188 -9.117188 22.078125 -10.226562 23.390625 -11.25 Z M 23.390625 -11.25 "/></g></g></g></svg>
